<?xml version="1.0" encoding="UTF-8" standalone="no"?>
<!-- Created with Inkscape (http://www.inkscape.org/) -->

<svg
   version="1.1"
   id="svg1"
   width="871.87262"
   height="890.53979"
   viewBox="0 0 871.87262 890.53979"
   sodipodi:docname="tenderflowicon-clean-inkscape.svg"
   inkscape:version="1.3.2 (091e20e, 2023-11-25)"
   xml:space="preserve"
   xmlns:inkscape="http://www.inkscape.org/namespaces/inkscape"
   xmlns:sodipodi="http://sodipodi.sourceforge.net/DTD/sodipodi-0.dtd"
   xmlns="http://www.w3.org/2000/svg"
   xmlns:svg="http://www.w3.org/2000/svg"><defs
     id="defs1" /><sodipodi:namedview
     id="namedview1"
     pagecolor="#ffffff"
     bordercolor="#000000"
     borderopacity="0.25"
     inkscape:showpageshadow="2"
     inkscape:pageopacity="0.0"
     inkscape:pagecheckerboard="0"
     inkscape:deskcolor="#d1d1d1"
     inkscape:zoom="0.83155757"
     inkscape:cx="-1.8038438"
     inkscape:cy="502.67115"
     inkscape:window-width="2490"
     inkscape:window-height="1376"
     inkscape:window-x="70"
     inkscape:window-y="187"
     inkscape:window-maximized="1"
     inkscape:current-layer="g1" /><g
     inkscape:groupmode="layer"
     inkscape:label="Image"
     id="g1"
     transform="translate(-18.127052,-88.317999)"><path
       style="display:inline;opacity:1;fill:#1b374d;fill-opacity:1"
       d="m 181.5,950.54801 c 70.43934,-34.93597 91.3818,-45.15556 94.36226,-46.04728 1.29925,-0.38872 14.57425,-6.84791 29.5,-14.35375 59.75495,-30.04947 63.10488,-31.40571 75.87175,-30.71727 58.01129,3.12822 201.36117,1.33448 238.26599,-2.98143 C 768.97849,838.96722 876.59765,735.96307 889.00544,598.5 c 1.34288,-14.87748 1.31777,-219.50191 -0.0287,-234 C 875.9719,224.47258 773.76744,120.66949 624.5,95.886453 566.49015,86.255014 413.98842,85.683835 370,94.933249 367.525,95.453665 363.7,96.1627 361.5,96.508881 229.21212,117.32504 124.62047,221.43806 106.34121,350.5 c -2.81571,19.88051 -2.82758,245.06252 -0.0138,262 10.93595,65.82897 35.58966,115.0083 81.42261,162.42223 3.8394,3.97184 5.25,6.19826 5.25,8.28632 0,2.85121 -4.14647,40.70571 -8.0829,73.79145 -4.68313,39.36178 -5.95709,37.22967 15.57702,26.06977 24.35304,-12.6208 36.00083,-18.74495 41.00588,-21.56002 2.2,-1.23737 13,-6.87339 24,-12.52448 11,-5.65109 20.4275,-10.65958 20.95,-11.12999 1.95323,-1.75849 27.66109,5.08673 31.01111,8.25731 2.13421,2.0199 -19.88837,14.00112 -66.46111,36.15766 -5.225,2.48574 -25.25,12.27153 -44.5,21.7462 C 157.65428,928.05784 143.04531,935 141.29873,935 c -1.60979,0 -1.3888,-7.84591 0.74643,-26.5 0.90297,-7.88864 2.66007,-26.16254 5.43266,-56.5 0.77912,-8.525 2.13954,-22.79686 3.02316,-31.71526 1.89641,-19.14051 2.76789,-16.6075 -10.93432,-31.78117 C 91.694608,735.49063 64.521007,680.62421 48.437493,604.50402 44.677349,586.70798 36.119277,579.75 25.038636,585.48002 c -7.75226,4.00885 -8.57439,9.33594 -4.496011,29.13246 14.65908,71.15542 42.724357,129.30698 89.548955,185.54643 8.03584,9.65158 9.90786,12.50925 9.90546,15.12088 -0.004,4.82675 -2.52208,30.33326 -7.02986,71.22021 -9.46364,85.83806 -9.47207,84.40261 0.53282,90.71773 6.08629,3.84168 7.97604,3.10051 68,-26.66972 z"
       id="path2" /><path
       style="opacity:1;fill:#fafbfd;fill-opacity:1"
       d="m 693.34371,510.75 c -1.10934,-1.2375 -6.92799,-6.74212 -12.93034,-12.23249 C 674.41102,493.02715 666.125,485.36209 662,481.48406 648.60136,468.8876 629.84375,451.69354 613.5,437.02678 c -8.8,-7.89705 -19.15,-17.32453 -23,-20.94996 -3.85,-3.62543 -17.74592,-16.48835 -30.87983,-28.58426 -13.1339,-12.09591 -28.4339,-26.44328 -34,-31.88305 -15.16358,-14.81943 -14.433,-14.58783 -46.05445,-14.59974 -34.3243,-0.0129 -35.71609,0.61173 -38.96992,17.49023 -6.32554,32.81241 -10.3091,44.25872 -17.72269,50.92418 C 403.21946,427.09449 373,418.03694 373,394.47592 c 0,-6.71453 19.44071,-82.86393 23.01109,-90.1346 C 401.08644,294.00595 411.69215,285.38444 426,279.96296 432.5,277.5 432.5,277.5 499.5,277.5 c 82.05775,0 71.5992,-2.25731 112.68341,24.32095 6.22412,4.02653 16.44008,10.63086 22.70213,14.67631 6.26205,4.04544 15.12084,9.45178 19.6862,12.01409 8.30066,4.65874 8.30066,4.65874 11.46469,13.3237 2.56436,7.02269 29.40358,85.46357 34.44338,100.66495 0.72938,2.2 4.47148,13.225 8.31579,24.5 12.10326,35.49776 12.36803,32.46667 -3.66822,41.99363 -7.79699,4.63211 -9.03973,4.81734 -11.78367,1.75637 z"
       id="path24" /><path
       style="opacity:1;fill:#fafbfd;fill-opacity:1"
       d="m 763.672,530.75 c -0.74516,-1.7875 -8.15817,-23.5 -16.47335,-48.25 -8.31518,-24.75 -18.76317,-55.575 -23.21775,-68.5 -4.45458,-12.925 -9.62916,-28 -11.49905,-33.5 -1.86989,-5.5 -6.81683,-19.9 -10.9932,-32 -8.83987,-25.61138 -16.4854,-48.67918 -16.48731,-49.74486 -7.4e-4,-0.40967 6.86116,-4.06463 15.24866,-8.12213 8.3875,-4.0575 22.75924,-11.03482 31.93721,-15.50514 20.89492,-10.17733 20.07135,-10.16392 23.21678,-0.37787 1.37005,4.2625 8.53362,25.75 15.91905,47.75 7.38543,22 21.84969,65.65 32.14279,97 10.2931,31.35 20.20609,61.275 22.02887,66.5 6.99103,20.03986 7.57518,17.72131 -5.9947,23.79365 -9.22033,4.12598 -45.61455,21.47256 -48.73643,23.22925 -3.32413,1.87051 -5.67892,1.11578 -7.09157,-2.2729 z"
       id="path22" /><path
       style="opacity:1;fill:#fafbfd;fill-opacity:1"
       d="m 205,526.6993 c -9.075,-4.51755 -22.37351,-11.0208 -29.55225,-14.45167 -7.17873,-3.43087 -13.85573,-6.82546 -14.83776,-7.54354 -1.67193,-1.22255 -0.94592,-3.78319 11.41336,-40.25484 7.25937,-21.42209 15.14132,-44.79925 17.51543,-51.94925 8.79961,-26.50134 27.5517,-81.76497 35.96798,-106 4.77507,-13.75 9.67034,-28.14737 10.87838,-31.99416 1.50356,-4.78784 2.75372,-7.10148 3.96306,-7.33438 2.40137,-0.46246 64.52986,30.91978 65.17384,32.92051 0.44014,1.3674 -12.66857,40.00583 -29.48494,86.90803 -2.66216,7.425 -5.29337,15.075 -5.84712,17 -0.55374,1.925 -2.44811,7.55 -4.20969,12.5 -3.45336,9.70384 -16.3893,47.23599 -26.02207,75.5 C 222.763,542.45343 227.40049,537.85029 205,526.6993 Z"
       id="path20" /><path
       style="opacity:1;fill:#fafbfd;fill-opacity:1"
       d="m 267.46603,599.59997 c -11.84311,-5.15946 -16.83046,-21.44748 -9.70902,-31.70839 9.93007,-14.30772 27.22082,-27.90369 35.44333,-27.86962 19.08586,0.0791 28.76047,18.96688 17.04966,33.28615 -21.22034,25.94695 -30.49413,31.64593 -42.78397,26.29186 z"
       id="path18" /><path
       style="opacity:1;fill:#fafbfd;fill-opacity:1"
       d="m 325.55695,646.95311 c -19.17866,-9.56831 -18.59247,-25.56994 1.71554,-46.83052 33.85261,-35.4405 33.07647,-34.82395 42.67726,-33.90144 16.33183,1.56928 27.36032,25.02022 17.94663,38.16164 -4.95161,6.91241 -38.31356,41.58729 -41.44007,43.07092 -4.73822,2.24843 -15.92636,1.98044 -20.89936,-0.5006 z"
       id="path16" /><path
       style="opacity:1;fill:#fafbfd;fill-opacity:1"
       d="m 392.52978,691.40564 c -12.71561,-4.65497 -19.09086,-21.91499 -12.03363,-32.57919 3.60608,-5.44915 42.1147,-45.4392 45.99514,-47.76457 19.84844,-11.89426 42.91543,16.98972 28.63567,35.85695 -3.61426,4.77535 -28.37026,31.41973 -37.35204,40.20122 -6.25965,6.12007 -15.80686,7.74079 -25.24514,4.28559 z"
       id="path14" /><path
       style="opacity:1;fill:#fafbfd;fill-opacity:1"
       d="m 549.23693,694.02108 c -4.00695,-1.81874 -35.4372,-28.70893 -52.35659,-44.79373 -7.65001,-7.27266 -7.65001,-7.27266 -8.06511,-20.5 -1.06239,-33.85377 -26.40782,-56.21016 -58.71946,-51.79456 -10.30611,1.40839 -10.6398,1.31126 -11.51458,-3.3517 -5.11475,-27.26394 -41.36631,-47.78772 -67.45692,-38.19064 -6.84825,2.51903 -8.7707,2.15691 -10.75561,-2.02599 -8.58472,-18.09095 -31.35269,-27.74868 -56.09124,-23.79283 C 280.34591,510.2003 272,501.95862 272,497.44753 c 0,-2.75999 9.16617,-31.34848 17.29691,-53.94753 3.0073,-8.35868 10.5484,-30.26093 21.69134,-63 17.08418,-50.19499 14.39379,-45.32564 28.91927,-52.34126 19.87591,-9.5998 19.65131,-11.78601 4.50116,43.81262 -10.47206,38.43078 4.56196,68.02362 38.84465,76.46149 40.24226,9.90467 72.19286,-13.5909 84.21976,-61.93285 3.23425,-13 3.23425,-13 16.03381,-13.28102 12.79956,-0.28102 12.79956,-0.28102 21.39633,8.03959 4.72822,4.57634 22.3061,20.9028 39.06194,36.28102 16.75584,15.37823 39.70584,36.52158 51,46.98524 11.29416,10.46365 25.25983,23.26385 31.03483,28.44488 5.775,5.18102 13.2,11.95115 16.5,15.04473 3.3,3.09358 8.475,7.87083 11.5,10.61611 56.11941,50.93016 59.21135,55.41799 50.22444,72.89886 -9.31695,18.12286 -28.04742,18.07672 -47.48709,-0.11696 -6.00894,-5.62379 -22.05209,-20.07246 -28.80503,-25.94218 -2.51222,-2.18365 -11.73722,-10.31489 -20.5,-18.06942 -8.76278,-7.75453 -17.69129,-15.62953 -19.84115,-17.5 -2.14986,-1.87047 -6.56369,-5.73619 -9.80852,-8.59049 -12.17936,-10.71354 -23.5191,-10.37001 -29.37766,0.88998 -4.98514,9.58129 -2.37332,13.0246 35.21295,46.42317 51.5127,45.77339 52.24118,46.45403 54.32325,50.75501 6.11775,12.63758 -1.90934,28.14452 -15.63427,30.20271 -12.14255,1.82088 -15.73544,0.10718 -33.62925,-16.04023 -12.44179,-11.22749 -37.82006,-33.62336 -52.55048,-46.37486 -14.69025,-12.71673 -18.70891,-14.1841 -27.15723,-9.91614 -11.0181,5.56617 -11.9488,17.46853 -2.0879,26.70113 3.57493,3.34715 43.6228,38.7002 54.86489,48.43307 14.449,12.50926 18.02917,19.30608 15.37038,29.18007 -2.97736,11.05707 -17.08115,17.35856 -27.8804,12.45681 z"
       id="path12" /></g></svg>
