<?xml version="1.0" encoding="UTF-8" standalone="no"?>
<!-- Created with Inkscape (http://www.inkscape.org/) -->

<svg
   version="1.1"
   id="svg1"
   width="1000"
   height="1000"
   viewBox="0 0 1000 1000"
   xml:space="preserve"
   xmlns="http://www.w3.org/2000/svg"
   xmlns:svg="http://www.w3.org/2000/svg"><defs
     id="defs1" /><g
     id="g1"><path
       style="display:inline;opacity:1;fill:#1b374d;fill-opacity:1"
       d="m 181.5,950.54801 c 70.43934,-34.93597 91.3818,-45.15556 94.36226,-46.04728 1.29925,-0.38872 14.57425,-6.84791 29.5,-14.35375 59.75495,-30.04947 63.10488,-31.40571 75.87175,-30.71727 58.01129,3.12822 201.36117,1.33448 238.26599,-2.98143 C 768.97849,838.96722 876.59765,735.96307 889.00544,598.5 c 1.34288,-14.87748 1.31777,-219.50191 -0.0287,-234 C 875.9719,224.47258 773.76744,120.66949 624.5,95.886453 566.49015,86.255014 413.98842,85.683835 370,94.933249 367.525,95.453665 363.7,96.1627 361.5,96.508881 229.21212,117.32504 124.62047,221.43806 106.34121,350.5 c -2.81571,19.88051 -2.82758,245.06252 -0.0138,262 10.93595,65.82897 35.58966,115.0083 81.42261,162.42223 3.8394,3.97184 5.25,6.19826 5.25,8.28632 0,2.85121 -4.14647,40.70571 -8.0829,73.79145 -4.68313,39.36178 -5.95709,37.22967 15.57702,26.06977 24.35304,-12.6208 36.00083,-18.74495 41.00588,-21.56002 2.2,-1.23737 13,-6.87339 24,-12.52448 11,-5.65109 20.4275,-10.65958 20.95,-11.12999 1.95323,-1.75849 27.66109,5.08673 31.01111,8.25731 2.13421,2.0199 -19.88837,14.00112 -66.46111,36.15766 -5.225,2.48574 -25.25,12.27153 -44.5,21.7462 C 157.65428,928.05784 143.04531,935 141.29873,935 c -1.60979,0 -1.3888,-7.84591 0.74643,-26.5 0.90297,-7.88864 2.66007,-26.16254 5.43266,-56.5 0.77912,-8.525 2.13954,-22.79686 3.02316,-31.71526 1.89641,-19.14051 2.76789,-16.6075 -10.93432,-31.78117 C 91.694608,735.49063 64.521007,680.62421 48.437493,604.50402 44.677349,586.70798 36.119277,579.75 25.038636,585.48002 c -7.75226,4.00885 -8.57439,9.33594 -4.496011,29.13246 14.65908,71.15542 42.724357,129.30698 89.548955,185.54643 8.03584,9.65158 9.90786,12.50925 9.90546,15.12088 -0.004,4.82675 -2.52208,30.33326 -7.02986,71.22021 -9.46364,85.83806 -9.47207,84.40261 0.53282,90.71773 6.08629,3.84168 7.97604,3.10051 68,-26.66972 z"
       id="path2" /><path
       style="fill:#000000;opacity:1"
       d="M 306.37937,61.090636 C 335.18176,52.319178 341.13078,50.8306 364.5,46.547539 c 43.07312,-7.89435 67.67722,-9.765025 128.5,-9.76999 59.103,-0.0048 86.48492,1.937903 133,9.436255 34.86276,5.619967 43.69941,3.265946 41.41306,-11.032142 C 665.44796,22.892611 660.28754,21.046739 608.5,14.108594 567.08679,8.5603304 459.34778,6.0490038 423,9.784709 c -6.875,0.70659 -17.225,1.729708 -23,2.273597 -37.70217,3.550782 -111.20504,20.587719 -119.53076,27.705555 -7.7347,6.612564 -7.39352,17.210645 0.76094,23.637059 4.47257,3.524776 6.64387,3.325313 25.14919,-2.310284 z"
       id="path64" /><path
       style="fill:#227faf;opacity:1;fill-opacity:1"
       d="M 279.29855,66.040484 C 269.53582,60.087801 270.10905,42.474811 280.25557,36.63484 290.24008,30.88812 335.07044,19.205028 369,13.507447 430.09512,3.2481237 553.55271,2.7686581 617.5,12.542361 c 47.61803,7.27794 52.5,9.506672 52.5,23.967461 0,12.881946 -9.57338,18.10401 -27.5,15.000631 C 586.84053,41.874927 558.5335,39.594812 494,39.548864 c -83.85346,-0.0597 -124.39799,5.172571 -185.90341,23.990848 -16.57507,5.07133 -23.58398,5.679971 -28.79804,2.500772 z"
       id="path63" /><path
       style="display:inline;opacity:1;fill:#1b374d;fill-opacity:1"
       d="m 881.24767,89.172133 c -25.916,-9.209066 -25.83511,-47.325686 0.12103,-57.037124 20.31501,-7.600817 40.6542,6.815899 40.62153,28.79313 -0.0307,20.642703 -21.07639,35.232231 -40.74256,28.243994 z"
       id="path61" /><path
       style="fill:#1b374d;opacity:1;fill-opacity:1"
       d="M 85.5,89.02757 C 60.291013,78.99072 60.840661,41.686273 86.338092,32.146462 117.05507,20.653767 141.31111,60.417408 116.98804,82.391836 107.9912,90.519948 95.735337,93.102726 85.5,89.02757 Z"
       id="path59" /><path
       style="fill:#227faf;opacity:1;fill-opacity:1"
       d="m 918.27505,263.02906 c -5.34343,-1.26954 -7.98003,-3.66718 -11.83774,-10.76483 C 894.57274,230.43504 891.07369,224.39666 884.32497,214.10454 846.71703,156.75065 800.86772,117.051 731.00725,81.350974 712.90389,72.099812 711.08079,52.418829 727.81558,46.89585 c 12.87983,-4.250728 62.1006,22.510764 105.68442,57.46096 51.33461,41.16562 114.45354,129.64765 105.57212,147.99421 -2.9418,6.07694 -12.37076,12.45108 -17.07212,11.54104 -0.275,-0.0532 -1.95123,-0.44158 -3.72495,-0.863 z"
       id="path57" /><path
       style="fill:#227faf;opacity:1;fill-opacity:1"
       d="M 60.989831,261.75 C 52.603866,256.04256 50.860272,245.78872 56.441179,235 85.941688,177.97113 127.10692,128.73264 176,91.993493 c 4.675,-3.51288 10.1977,-7.677906 12.27267,-9.255615 14.27668,-10.855313 25.47518,-11.120429 32.32786,-0.765336 7.14776,10.801006 3.38202,19.497708 -13.42957,31.014548 -44.9143,30.7687 -86.61282,77.48089 -113.126179,126.72803 -13.138227,24.40355 -21.441724,29.93877 -33.05495,22.03488 z"
       id="path55" /><path
       style="fill:#227faf;opacity:1;fill-opacity:1"
       d="m 28.5,359.97571 c -9.629125,-4.86925 -10.464149,-13.29275 -3.662316,-36.94444 6.721011,-23.37065 9.378612,-27.05763 20.060276,-27.83027 16.536127,-1.19612 21.283183,9.24845 14.712766,32.37133 -1.864101,6.56022 -4.165246,14.9695 -5.113654,18.6873 C 51.040564,359.80926 39.848305,365.71431 28.5,359.97571 Z"
       id="path53" /><path
       style="fill:#227faf;opacity:1;fill-opacity:1"
       d="m 953.30867,389.11502 c -5.67965,-2.66236 -7.54808,-6.77536 -10.27341,-22.61502 -1.23021,-7.15 -4.44042,-21.775 -7.1338,-32.5 -2.69338,-10.725 -4.89804,-21.17223 -4.89925,-23.21607 -0.0104,-17.4469 25.20567,-21.60737 32.56196,-5.3725 4.68964,10.34974 14.1955,51.90089 15.1194,66.08857 0.97733,15.00809 -11.88625,23.93787 -25.3749,17.61502 z"
       id="path51" /><path
       style="fill:#227faf;opacity:1;fill-opacity:1"
       d="m 13,482.87927 c -7.9034316,-3.14226 -10.5244715,-9.38504 -9.5628028,-22.77664 3.6378103,-50.65789 5.8057317,-56.5693 20.7459498,-56.5693 14.804003,0 17.791889,6.45233 15.423712,33.30743 -0.953491,10.81258 -2.097219,23.8531 -2.541616,28.97893 C 35.791736,480.50873 25.459673,487.83302 13,482.87927 Z"
       id="path49" /><path
       style="fill:#227faf;opacity:1;fill-opacity:1"
       d="m 968.18467,487.0478 c -8.97022,-2.22386 -10.80216,-8.13777 -12.72409,-41.07611 -1.85821,-31.84619 31.30812,-36.00307 33.94461,-4.25443 0.35546,4.28051 1.13997,12.59265 1.74335,18.47142 2.14897,20.93763 -6.42035,30.96051 -22.96387,26.85912 z"
       id="path47" /><path
       style="fill:#227faf;opacity:1;fill-opacity:1"
       d="M 14.5,547.04597 C 7.8526777,544.29646 4.4931092,531.81049 8.4324306,524.49561 14.207671,513.77164 32.837088,516.25384 36.047129,528.17503 39.535845,541.13112 26.917548,552.18221 14.5,547.04597 Z"
       id="path45" /><path
       style="fill:#227faf;opacity:1;fill-opacity:1"
       d="m 963.5,562.04597 c -10.91362,-4.51417 -11.10208,-23.1477 -0.28377,-28.05778 18.70105,-8.4878 32.58008,17.56324 14.49794,27.21275 -3.38,1.80372 -10.82618,2.2464 -14.21417,0.84503 z"
       id="path43" /><path
       style="fill:#227faf;opacity:1;fill-opacity:1"
       d="m 786.5,873.13944 c -11.10865,-6.86175 -11.19847,-22.16403 -0.17651,-30.07047 2.29708,-1.64777 4.62651,-3.36958 5.17651,-3.82623 0.55,-0.45666 3.7,-2.80813 7,-5.22548 74.63734,-54.67433 125.66905,-134.93282 143.92719,-226.3569 3.15115,-15.77873 13.64469,-22.74563 25.30194,-16.79855 9.66457,4.9305 11.2228,10.5639 7.69662,27.82526 -18.51191,90.61951 -66.24902,169.99502 -138.51927,230.32473 -30.03256,25.07056 -40.65132,30.15335 -50.40648,24.12764 z"
       id="path41" /><path
       style="fill:#227faf;opacity:1;fill-opacity:1"
       d="m 618.12201,935.62578 c -11.88161,-4.29843 -13.25899,-24.36662 -2.06955,-30.15291 1.7275,-0.89332 8.8349,-2.70269 15.79423,-4.02081 27.99246,-5.30188 45.85018,-9.51026 66.04886,-15.5652 22.20612,-6.6567 28.49378,-5.88368 33.88458,4.16588 6.73849,12.56193 0.0134,21.31387 -21.44898,27.91332 -39.51204,12.14955 -83.92727,20.65587 -92.20914,17.65972 z"
       id="path39" /><path
       style="display:inline;opacity:1;fill:#1b374d;fill-opacity:1"
       d="M 868.63658,942.60587 C 839.18137,927.86801 848.725,885.5 881.5,885.5 c 40.22103,0 40.22103,57.85254 0,59.25944 -6.82137,0.23861 -8.71652,-0.0787 -12.86342,-2.15357 z"
       id="path37" /><path
       style="fill:#227faf;opacity:1;fill-opacity:1"
       d="m 433.6193,943.98063 c -12.05111,-3.67123 -14.52708,-23.52113 -3.7684,-30.21143 3.61297,-2.24673 117.9465,-4.26631 128.86966,-2.27634 13.84844,2.5229 16.51937,24.39468 3.77944,30.9492 -4.33305,2.22929 -122.00221,3.63402 -128.8807,1.53857 z"
       id="path35" /><path
       style="fill:#227faf;opacity:1;fill-opacity:1"
       d="m 374.23767,930.43268 c 12.34442,-9.18225 5.75427,-23.16525 -12.89148,-27.35318 -16.38242,-3.67958 -36.33173,-9.26351 -43.99809,-12.31534 C 312.60246,888.87502 277,903.25862 277,907.06502 c 0,3.30748 53.79419,19.89675 82,25.28749 5.08506,0.97187 12.62772,0.0215 15.23767,-1.91983 z"
       id="path34" /><path
       style="fill:#fafbfd;opacity:1;fill-opacity:1"
       d="m 599.89788,196.73007 c -9.07834,-6.06473 -8.70768,-19.40463 0.64778,-23.3136 7.03579,-2.93974 13.26176,-1.30987 17.17432,4.49598 8.0869,12.00014 -5.90798,26.77676 -17.8221,18.81762 z"
       id="path32" /><path
       style="fill:#fafbfd;opacity:1;fill-opacity:1"
       d="m 483.46244,224.91153 c -6.51525,-1.84165 -10.29358,-8.72257 -10.41889,-18.97444 -0.0721,-5.89684 -4.25227,-9.02713 -13.23047,-9.90748 -23.05914,-2.26104 -23.81938,-23.25367 -0.97878,-27.02708 10.9751,-1.81315 13.66288,-4.526 14.51905,-14.65444 C 475.35484,130.67053 500,132.04404 500,155.83315 c 0,8.89739 3.92582,11.91813 17.79159,13.68983 20.83397,2.66207 15.99925,26.44801 -5.38056,26.47144 -8.69028,0.01 -12.05546,3.50513 -12.61785,13.10688 -0.7239,12.35924 -7.00993,18.44492 -16.33074,15.81023 z"
       id="path30" /><path
       style="fill:#fafbfd;opacity:1;fill-opacity:1"
       d="m 656.52957,230.71832 c -15.25027,-8.63747 -9.81012,-30.70298 7.57255,-30.71458 17.26449,-0.0115 23.11468,22.8564 7.84502,30.66557 -5.64161,2.88522 -10.38336,2.90029 -15.41757,0.049 z"
       id="path28" /><path
       style="fill:#fafbfd;opacity:1;fill-opacity:1"
       d="m 314.15506,234.23817 c -8.76088,-2.96025 -12.82637,-14.71291 -8.03717,-23.23413 7.97168,-14.1837 30.49015,-7.88116 30.33274,8.48963 -0.11482,11.94189 -10.42029,18.7571 -22.29557,14.7445 z"
       id="path26" /><path
       style="fill:#fafbfd;opacity:1;fill-opacity:1"
       d="m 693.34371,510.75 c -1.10934,-1.2375 -6.92799,-6.74212 -12.93034,-12.23249 C 674.41102,493.02715 666.125,485.36209 662,481.48406 648.60136,468.8876 629.84375,451.69354 613.5,437.02678 c -8.8,-7.89705 -19.15,-17.32453 -23,-20.94996 -3.85,-3.62543 -17.74592,-16.48835 -30.87983,-28.58426 -13.1339,-12.09591 -28.4339,-26.44328 -34,-31.88305 -15.16358,-14.81943 -14.433,-14.58783 -46.05445,-14.59974 -34.3243,-0.0129 -35.71609,0.61173 -38.96992,17.49023 -6.32554,32.81241 -10.3091,44.25872 -17.72269,50.92418 C 403.21946,427.09449 373,418.03694 373,394.47592 c 0,-6.71453 19.44071,-82.86393 23.01109,-90.1346 C 401.08644,294.00595 411.69215,285.38444 426,279.96296 432.5,277.5 432.5,277.5 499.5,277.5 c 82.05775,0 71.5992,-2.25731 112.68341,24.32095 6.22412,4.02653 16.44008,10.63086 22.70213,14.67631 6.26205,4.04544 15.12084,9.45178 19.6862,12.01409 8.30066,4.65874 8.30066,4.65874 11.46469,13.3237 2.56436,7.02269 29.40358,85.46357 34.44338,100.66495 0.72938,2.2 4.47148,13.225 8.31579,24.5 12.10326,35.49776 12.36803,32.46667 -3.66822,41.99363 -7.79699,4.63211 -9.03973,4.81734 -11.78367,1.75637 z"
       id="path24" /><path
       style="fill:#fafbfd;opacity:1;fill-opacity:1"
       d="m 763.672,530.75 c -0.74516,-1.7875 -8.15817,-23.5 -16.47335,-48.25 -8.31518,-24.75 -18.76317,-55.575 -23.21775,-68.5 -4.45458,-12.925 -9.62916,-28 -11.49905,-33.5 -1.86989,-5.5 -6.81683,-19.9 -10.9932,-32 -8.83987,-25.61138 -16.4854,-48.67918 -16.48731,-49.74486 -7.4e-4,-0.40967 6.86116,-4.06463 15.24866,-8.12213 8.3875,-4.0575 22.75924,-11.03482 31.93721,-15.50514 20.89492,-10.17733 20.07135,-10.16392 23.21678,-0.37787 1.37005,4.2625 8.53362,25.75 15.91905,47.75 7.38543,22 21.84969,65.65 32.14279,97 10.2931,31.35 20.20609,61.275 22.02887,66.5 6.99103,20.03986 7.57518,17.72131 -5.9947,23.79365 -9.22033,4.12598 -45.61455,21.47256 -48.73643,23.22925 -3.32413,1.87051 -5.67892,1.11578 -7.09157,-2.2729 z"
       id="path22" /><path
       style="fill:#fafbfd;opacity:1;fill-opacity:1"
       d="m 205,526.6993 c -9.075,-4.51755 -22.37351,-11.0208 -29.55225,-14.45167 -7.17873,-3.43087 -13.85573,-6.82546 -14.83776,-7.54354 -1.67193,-1.22255 -0.94592,-3.78319 11.41336,-40.25484 7.25937,-21.42209 15.14132,-44.79925 17.51543,-51.94925 8.79961,-26.50134 27.5517,-81.76497 35.96798,-106 4.77507,-13.75 9.67034,-28.14737 10.87838,-31.99416 1.50356,-4.78784 2.75372,-7.10148 3.96306,-7.33438 2.40137,-0.46246 64.52986,30.91978 65.17384,32.92051 0.44014,1.3674 -12.66857,40.00583 -29.48494,86.90803 -2.66216,7.425 -5.29337,15.075 -5.84712,17 -0.55374,1.925 -2.44811,7.55 -4.20969,12.5 -3.45336,9.70384 -16.3893,47.23599 -26.02207,75.5 C 222.763,542.45343 227.40049,537.85029 205,526.6993 Z"
       id="path20" /><path
       style="fill:#fafbfd;opacity:1;fill-opacity:1"
       d="m 267.46603,599.59997 c -11.84311,-5.15946 -16.83046,-21.44748 -9.70902,-31.70839 9.93007,-14.30772 27.22082,-27.90369 35.44333,-27.86962 19.08586,0.0791 28.76047,18.96688 17.04966,33.28615 -21.22034,25.94695 -30.49413,31.64593 -42.78397,26.29186 z"
       id="path18" /><path
       style="fill:#fafbfd;opacity:1;fill-opacity:1"
       d="m 325.55695,646.95311 c -19.17866,-9.56831 -18.59247,-25.56994 1.71554,-46.83052 33.85261,-35.4405 33.07647,-34.82395 42.67726,-33.90144 16.33183,1.56928 27.36032,25.02022 17.94663,38.16164 -4.95161,6.91241 -38.31356,41.58729 -41.44007,43.07092 -4.73822,2.24843 -15.92636,1.98044 -20.89936,-0.5006 z"
       id="path16" /><path
       style="fill:#fafbfd;opacity:1;fill-opacity:1"
       d="m 392.52978,691.40564 c -12.71561,-4.65497 -19.09086,-21.91499 -12.03363,-32.57919 3.60608,-5.44915 42.1147,-45.4392 45.99514,-47.76457 19.84844,-11.89426 42.91543,16.98972 28.63567,35.85695 -3.61426,4.77535 -28.37026,31.41973 -37.35204,40.20122 -6.25965,6.12007 -15.80686,7.74079 -25.24514,4.28559 z"
       id="path14" /><path
       style="fill:#fafbfd;opacity:1;fill-opacity:1"
       d="m 549.23693,694.02108 c -4.00695,-1.81874 -35.4372,-28.70893 -52.35659,-44.79373 -7.65001,-7.27266 -7.65001,-7.27266 -8.06511,-20.5 -1.06239,-33.85377 -26.40782,-56.21016 -58.71946,-51.79456 -10.30611,1.40839 -10.6398,1.31126 -11.51458,-3.3517 -5.11475,-27.26394 -41.36631,-47.78772 -67.45692,-38.19064 -6.84825,2.51903 -8.7707,2.15691 -10.75561,-2.02599 -8.58472,-18.09095 -31.35269,-27.74868 -56.09124,-23.79283 C 280.34591,510.2003 272,501.95862 272,497.44753 c 0,-2.75999 9.16617,-31.34848 17.29691,-53.94753 3.0073,-8.35868 10.5484,-30.26093 21.69134,-63 17.08418,-50.19499 14.39379,-45.32564 28.91927,-52.34126 19.87591,-9.5998 19.65131,-11.78601 4.50116,43.81262 -10.47206,38.43078 4.56196,68.02362 38.84465,76.46149 40.24226,9.90467 72.19286,-13.5909 84.21976,-61.93285 3.23425,-13 3.23425,-13 16.03381,-13.28102 12.79956,-0.28102 12.79956,-0.28102 21.39633,8.03959 4.72822,4.57634 22.3061,20.9028 39.06194,36.28102 16.75584,15.37823 39.70584,36.52158 51,46.98524 11.29416,10.46365 25.25983,23.26385 31.03483,28.44488 5.775,5.18102 13.2,11.95115 16.5,15.04473 3.3,3.09358 8.475,7.87083 11.5,10.61611 56.11941,50.93016 59.21135,55.41799 50.22444,72.89886 -9.31695,18.12286 -28.04742,18.07672 -47.48709,-0.11696 -6.00894,-5.62379 -22.05209,-20.07246 -28.80503,-25.94218 -2.51222,-2.18365 -11.73722,-10.31489 -20.5,-18.06942 -8.76278,-7.75453 -17.69129,-15.62953 -19.84115,-17.5 -2.14986,-1.87047 -6.56369,-5.73619 -9.80852,-8.59049 -12.17936,-10.71354 -23.5191,-10.37001 -29.37766,0.88998 -4.98514,9.58129 -2.37332,13.0246 35.21295,46.42317 51.5127,45.77339 52.24118,46.45403 54.32325,50.75501 6.11775,12.63758 -1.90934,28.14452 -15.63427,30.20271 -12.14255,1.82088 -15.73544,0.10718 -33.62925,-16.04023 -12.44179,-11.22749 -37.82006,-33.62336 -52.55048,-46.37486 -14.69025,-12.71673 -18.70891,-14.1841 -27.15723,-9.91614 -11.0181,5.56617 -11.9488,17.46853 -2.0879,26.70113 3.57493,3.34715 43.6228,38.7002 54.86489,48.43307 14.449,12.50926 18.02917,19.30608 15.37038,29.18007 -2.97736,11.05707 -17.08115,17.35856 -27.8804,12.45681 z"
       id="path12" /><path
       style="fill:#fafbfd;opacity:1;fill-opacity:1"
       d="m 711.43246,736.75 c -3.84236,-3.52941 -5.36862,-8.0427 -5.4086,-15.99373 -0.0325,-6.46284 -4.58424,-9.927 -15.31896,-11.6587 -20.95724,-3.38076 -20.4531,-21.7541 0.69855,-25.45822 C 703.5367,681.51455 706,679.26017 706,670.28079 c 0,-10.52113 3.88066,-16.49544 11.5,-17.70434 8.77335,-1.392 15.5,6.37902 15.5,17.90652 0,8.4923 3.50408,11.75037 14.07703,13.0887 18.57876,2.35171 22.54396,22.24744 4.94977,24.8359 -2.21474,0.32584 -5.79907,0.8523 -7.96519,1.16992 -7.1893,1.05417 -10.98153,4.98108 -11.03074,11.42251 -0.12371,16.19116 -11.82707,24.7255 -21.59841,15.75 z"
       id="path10" /><path
       style="display:inline;opacity:1;fill:#fafbfd;fill-opacity:1"
       d="m 242.41996,738.11432 c -4.02772,-2.4561 -6.1638,-7.15768 -7.01161,-15.43278 -0.93551,-9.13116 -3.72664,-11.6729 -14.87531,-13.54621 C 210.4457,707.44036 206,703.74352 206,697.05034 c 0,-8.52548 2.67643,-10.8151 15.74475,-13.46919 C 233.57302,681.1789 236,678.67672 236,668.88419 c 0,-7.63729 0.10991,-8.00008 3.59082,-11.85303 C 248.47254,647.20015 262,653.87154 262,668.08278 c 0,10.86639 2.38829,13.21575 15.80632,15.54862 21.02324,3.65512 20.42284,25.26169 -0.70554,25.39056 C 267.68153,709.07941 262,714.43432 262,723.25462 c 0,13.41559 -9.77847,20.83668 -19.58004,14.8597 z"
       id="path8" /><path
       style="fill:#fafbfd;opacity:1;fill-opacity:1"
       d="m 360.25623,768.35534 c -9.6467,-4.75563 -9.85486,-19.87949 -0.3463,-25.16088 11.85674,-6.58565 25.40941,6.90096 19.48361,19.38865 -3.16757,6.67514 -11.93908,9.32082 -19.13731,5.77223 z"
       id="path6" /><path
       style="display:inline;opacity:1;fill:#fafbfd;fill-opacity:1"
       d="m 609.5,770.04051 c -7.10369,-2.95766 -10.52183,-12.97757 -6.97609,-20.44964 4.7323,-9.9726 20.76776,-9.31705 25.08923,1.02567 5.05988,12.11 -6.3339,24.32834 -18.11314,19.42397 z"
       id="path4" /></g></svg>
